<svg width="192" height="192" viewBox="0 0 192 192" fill="none" xmlns="http://www.w3.org/2000/svg">
<path d="M62.0898 185.667C62.0898 185.667 72.2715 149.342 110.206 116.016C148.141 82.6902 189.853 82.6902 189.853 82.6902V91.3549C189.853 91.3549 155.039 91.3549 118.417 124.347C81.7963 157.34 76.7055 185.667 76.7055 185.667H62.0898Z" fill="#779E2B"/>
<path d="M116.94 133.679C90.8286 161.006 82.1249 185.667 82.1249 185.667H97.3974C97.3974 185.667 101.339 171.17 127.778 144.343C154.217 117.516 176.88 99.1865 176.88 99.1865C176.88 99.1865 143.051 106.352 116.94 133.679Z" fill="#617E22"/>
<path d="M103.638 186C103.638 186 103.309 181.501 118.253 163.005C133.197 144.509 140.423 138.844 152.904 128.346C165.384 117.849 190.51 95.8537 190.51 95.8537C190.51 95.8537 191.66 103.019 190.51 106.518C189.36 110.017 176.213 125.847 168.505 134.178C160.796 142.51 143.875 160.233 139.109 164.505C129.256 173.336 124.822 186 124.822 186H103.638Z" fill="#51711C"/>
<path d="M190.346 117.682C190.346 117.682 177.044 133.679 166.37 144.843C155.695 156.007 155.367 154.84 145.35 165.671C135.332 176.502 130.241 186 130.241 186C130.241 186 151.097 183.167 169.326 161.339C187.554 139.511 190.346 117.682 190.346 117.682Z" fill="#5A7E1A"/>
<path d="M73.5849 121.182L86.2298 133.179C86.2298 133.179 97.3968 115.016 127.613 97.187C157.83 79.3577 187.718 77.5248 187.718 77.5248L185.911 69.1933C185.911 69.1933 155.695 66.194 122.687 81.8571C89.6784 97.5203 73.5849 121.182 73.5849 121.182Z" fill="#769F1F"/>
<path d="M82.4527 137.844L73.0922 150.175C73.0922 150.175 64.717 142.01 46.4886 126.68C28.2602 111.35 13.9731 100.519 13.9731 100.519C13.9731 100.519 28.2602 100.519 52.4005 114.516C76.5408 128.513 82.4527 137.844 82.4527 137.844Z" fill="#779F24"/>
<path d="M69.8082 155.174L62.4183 169.671C62.4183 169.671 50.9229 163.172 27.9321 140.344C4.94128 117.516 1 107.685 1 107.685V96.0205L69.8082 155.174Z" fill="#74A02D"/>
<path d="M55.8495 185.834L60.1192 174.67C60.1192 174.67 44.3541 164.505 30.2312 150.675C16.1083 136.845 1.82123 118.349 1.82123 118.349C1.82123 118.349 6.74782 145.676 22.5129 162.506C38.278 179.335 55.8495 185.834 55.8495 185.834Z" fill="#719D20"/>
<path d="M37.2923 101.353C57.3271 108.851 67.673 118.349 67.673 118.349L79.661 105.852C79.661 105.852 64.8812 97.6868 43.3684 90.6883C21.8556 83.6899 2.97035 82.3569 2.97035 82.3569L1.32816 92.3546C1.32816 92.3546 17.2575 93.8543 37.2923 101.353Z" fill="#799F2F"/>
<path d="M92.3065 94.3541L83.7671 101.686C83.7671 101.686 66.1955 91.8547 44.5185 84.8563C22.8415 77.8579 3.79199 77.8579 3.79199 77.8579L6.58373 68.36C6.58373 68.36 26.2901 68.36 53.0579 75.6917C79.8258 83.0234 92.3065 94.3541 92.3065 94.3541Z" fill="#7B9D2F"/>
<path d="M96.905 90.1885C96.905 90.1885 98.0546 77.858 104.295 69.8598C110.535 61.8616 122.031 58.0291 122.031 58.0291C122.031 58.0291 124.987 57.0293 125.808 59.0289C126.629 61.0284 124.001 62.6947 124.001 62.6947C124.001 62.6947 117.433 64.6943 111.685 69.8598C105.937 75.0253 104.295 85.3563 104.295 85.3563C104.295 85.3563 116.119 78.8577 124.987 75.0253C133.855 71.1928 143.051 69.8598 147.157 68.3601C151.262 66.8605 156.353 62.6947 156.353 53.5301C156.353 44.3656 151.59 33.7013 142.394 31.8684C133.198 30.0355 123.367 37.5338 115.298 45.3653C107.229 53.1969 103.31 61.8616 103.31 61.8616C103.31 61.8616 104.131 50.6975 110.535 41.8661C116.94 33.0348 126.957 29.0357 126.957 29.0357C126.957 29.0357 122.031 7.20731 96.905 6.04091C71.7793 4.87451 65.2105 29.0357 65.2105 29.0357C65.2105 29.0357 74.5711 32.8682 80.483 41.8661C86.3949 50.8641 87.5445 59.0289 87.5445 59.0289C87.5445 59.0289 79.1693 47.3411 74.5711 42.8659C69.9729 38.3907 62.9114 31.0352 52.7298 32.035C42.5481 33.0348 35.1582 42.0327 35.8151 52.8636C36.4719 63.6945 44.3545 67.1937 44.3545 67.1937C44.3545 67.1937 55.1931 70.5263 66.5243 74.1921C77.8555 77.858 89.0224 85.3563 89.0224 85.3563C89.0224 85.3563 89.3509 75.8584 81.961 69.8598C74.5711 63.8611 67.5096 62.6947 67.5096 62.6947C67.5096 62.6947 65.539 61.1951 66.5243 59.0289C67.5096 56.8627 69.9729 58.0291 69.9729 58.0291C69.9729 58.0291 82.6179 60.6952 89.0224 69.8598C95.427 79.0244 96.905 90.1885 96.905 90.1885Z" fill="#739E28"/>
</svg>
